<?xml version="1.0"?>
<svg version="1.1" id="topsvg"
xmlns="http://www.w3.org/2000/svg" xmlns:xlink="http://www.w3.org/1999/xlink"
xmlns:cml="http://www.xml-cml.org/schema" x="0" y="0" width="100%" height="100%" viewBox="0 0 100 100">
<title>OBDepict</title>
<rect x="0" y="0" width="100" height="100" fill="white"/>
<text text-anchor="middle" font-size="2" fill ="black" font-family="sans-serif"
x="16.6667" y="32.6667" >C16H17N3 251.326</text>
<g transform="translate(0,0)">
<svg width="33.3333" height="33.3333" x="0" y="0" viewBox="0 0 328.23 265.106"
font-family="sans-serif" stroke="rgb(0,0,0)" stroke-width="2"  stroke-linecap="round">
<line x1="269.8" y1="102.4" x2="288.2" y2="85.3" stroke="rgb(0,0,0)"  stroke-width="2.0"/>
<line x1="136.8" y1="46.5" x2="158.6" y2="59.1" stroke="rgb(0,0,0)"  stroke-width="2.0"/>
<line x1="185.9" y1="154.1" x2="113.0" y2="176.6" stroke="rgb(0,0,0)"  stroke-width="2.0"/>
<line x1="224.7" y1="97.3" x2="191.6" y2="116.4" stroke="rgb(0,0,0)"  stroke-width="2.0"/>
<line x1="215.9" y1="94.0" x2="193.2" y2="107.1" stroke="rgb(0,0,0)"  stroke-width="2.0"/>
<line x1="191.6" y1="116.4" x2="158.6" y2="97.3" stroke="rgb(0,0,0)"  stroke-width="2.0"/>
<line x1="158.6" y1="97.3" x2="158.6" y2="59.1" stroke="rgb(0,0,0)"  stroke-width="2.0"/>
<line x1="165.8" y1="91.3" x2="165.8" y2="65.1" stroke="rgb(0,0,0)"  stroke-width="2.0"/>
<line x1="158.6" y1="59.1" x2="191.6" y2="40.0" stroke="rgb(0,0,0)"  stroke-width="2.0"/>
<line x1="191.6" y1="40.0" x2="224.7" y2="59.1" stroke="rgb(0,0,0)"  stroke-width="2.0"/>
<line x1="193.2" y1="49.2" x2="215.9" y2="62.3" stroke="rgb(0,0,0)"  stroke-width="2.0"/>
<line x1="224.7" y1="59.1" x2="224.7" y2="97.3" stroke="rgb(0,0,0)"  stroke-width="2.0"/>
<line x1="113.0" y1="176.6" x2="85.0" y2="150.7" stroke="rgb(0,0,0)"  stroke-width="2.0"/>
<line x1="85.0" y1="150.7" x2="48.5" y2="161.9" stroke="rgb(0,0,0)"  stroke-width="2.0"/>
<line x1="81.4" y1="159.3" x2="56.4" y2="167.0" stroke="rgb(0,0,0)"  stroke-width="2.0"/>
<line x1="48.5" y1="161.9" x2="40.0" y2="199.1" stroke="rgb(0,0,0)"  stroke-width="2.0"/>
<line x1="40.0" y1="199.1" x2="68.0" y2="225.1" stroke="rgb(0,0,0)"  stroke-width="2.0"/>
<line x1="49.3" y1="197.9" x2="68.5" y2="215.7" stroke="rgb(0,0,0)"  stroke-width="2.0"/>
<line x1="68.0" y1="225.1" x2="104.5" y2="213.9" stroke="rgb(0,0,0)"  stroke-width="2.0"/>
<line x1="104.5" y1="213.9" x2="113.0" y2="176.6" stroke="rgb(0,0,0)"  stroke-width="2.0"/>
<line x1="98.8" y1="206.4" x2="104.6" y2="180.9" stroke="rgb(0,0,0)"  stroke-width="2.0"/>
<line x1="264.1" y1="123.6" x2="271.5" y2="147.7" stroke="rgb(0,0,0)"  stroke-width="2.0"/>
<line x1="271.5" y1="147.7" x2="250.0" y2="179.3" stroke="rgb(0,0,0)"  stroke-width="2.0"/>
<line x1="250.0" y1="179.3" x2="224.9" y2="181.1" stroke="rgb(0,0,0)"  stroke-width="2.0"/>
<line x1="203.3" y1="172.9" x2="185.9" y2="154.1" stroke="rgb(0,0,0)"  stroke-width="2.0"/>
<line x1="207.1" y1="166.4" x2="195.3" y2="153.6" stroke="rgb(0,0,0)"  stroke-width="2.0"/>
<line x1="185.9" y1="154.1" x2="191.6" y2="116.4" stroke="rgb(0,0,0)"  stroke-width="2.0"/>
<line x1="224.7" y1="97.3" x2="248.1" y2="106.5" stroke="rgb(0,0,0)"  stroke-width="2.0"/>
<text x="254.239083" y="119.220793" fill="rgb(12,12,255)"  stroke="rgb(12,12,255)" stroke-width="1" font-size="16" >N</text>
<text x="205.913370" y="190.108997" fill="rgb(12,12,255)"  stroke="rgb(12,12,255)" stroke-width="1" font-size="16" >N</text>
<text x="99.500715" y="48.000000" fill="rgb(12,12,255)"  stroke="rgb(12,12,255)" stroke-width="1" font-size="16" >H</text>
<text x="111.500715" y="51.680000" fill="rgb(12,12,255)"  stroke="rgb(12,12,255)" stroke-width="1" font-size="13" >2</text>
<text x="118.000715" y="48.000000" fill="rgb(12,12,255)"  stroke="rgb(12,12,255)" stroke-width="1" font-size="16" >N</text>
</svg>
</g>
<text text-anchor="middle" font-size="2.000000" fill ="black" font-family="sans-serif"
x="50.000000" y="32.666667" >C15H13ClN2 256.73</text>
<g transform="translate(33.333333,0.000000)">
<svg width="33.333333" height="33.333333" x="0" y="0" viewBox="0 0 310.971237 264.686322"
font-family="sans-serif" stroke="rgb(0,0,0)" stroke-width="2.000000"  stroke-linecap="round">
<line x1="174.4" y1="46.5" x2="152.7" y2="59.0" stroke="rgb(0,0,0)"  stroke-width="2.0"/>
<line x1="125.4" y1="153.9" x2="198.2" y2="176.3" stroke="rgb(0,0,0)"  stroke-width="2.0"/>
<line x1="119.7" y1="116.2" x2="86.7" y2="97.1" stroke="rgb(0,0,0)"  stroke-width="2.0"/>
<line x1="118.1" y1="107.0" x2="95.5" y2="93.9" stroke="rgb(0,0,0)"  stroke-width="2.0"/>
<line x1="86.7" y1="97.1" x2="86.7" y2="59.0" stroke="rgb(0,0,0)"  stroke-width="2.0"/>
<line x1="86.7" y1="59.0" x2="119.7" y2="40.0" stroke="rgb(0,0,0)"  stroke-width="2.0"/>
<line x1="95.5" y1="62.3" x2="118.1" y2="49.2" stroke="rgb(0,0,0)"  stroke-width="2.0"/>
<line x1="119.7" y1="40.0" x2="152.7" y2="59.0" stroke="rgb(0,0,0)"  stroke-width="2.0"/>
<line x1="152.7" y1="59.0" x2="152.7" y2="97.1" stroke="rgb(0,0,0)"  stroke-width="2.0"/>
<line x1="145.5" y1="65.0" x2="145.5" y2="91.1" stroke="rgb(0,0,0)"  stroke-width="2.0"/>
<line x1="152.7" y1="97.1" x2="119.7" y2="116.2" stroke="rgb(0,0,0)"  stroke-width="2.0"/>
<line x1="198.2" y1="176.3" x2="206.6" y2="213.5" stroke="rgb(0,0,0)"  stroke-width="2.0"/>
<line x1="206.6" y1="213.5" x2="243.0" y2="224.7" stroke="rgb(0,0,0)"  stroke-width="2.0"/>
<line x1="214.5" y1="208.3" x2="239.4" y2="216.0" stroke="rgb(0,0,0)"  stroke-width="2.0"/>
<line x1="243.0" y1="224.7" x2="271.0" y2="198.8" stroke="rgb(0,0,0)"  stroke-width="2.0"/>
<line x1="271.0" y1="198.8" x2="262.5" y2="161.6" stroke="rgb(0,0,0)"  stroke-width="2.0"/>
<line x1="262.6" y1="194.5" x2="256.8" y2="169.1" stroke="rgb(0,0,0)"  stroke-width="2.0"/>
<line x1="262.5" y1="161.6" x2="226.1" y2="150.4" stroke="rgb(0,0,0)"  stroke-width="2.0"/>
<line x1="226.1" y1="150.4" x2="198.2" y2="176.3" stroke="rgb(0,0,0)"  stroke-width="2.0"/>
<line x1="226.6" y1="159.8" x2="207.5" y2="177.5" stroke="rgb(0,0,0)"  stroke-width="2.0"/>
<line x1="63.3" y1="106.3" x2="86.7" y2="97.1" stroke="rgb(0,0,0)"  stroke-width="2.0"/>
<line x1="119.7" y1="116.2" x2="125.4" y2="153.9" stroke="rgb(0,0,0)"  stroke-width="2.0"/>
<line x1="125.4" y1="153.9" x2="108.0" y2="172.6" stroke="rgb(0,0,0)"  stroke-width="2.0"/>
<line x1="116.0" y1="153.4" x2="104.2" y2="166.1" stroke="rgb(0,0,0)"  stroke-width="2.0"/>
<line x1="86.5" y1="180.8" x2="61.5" y2="178.9" stroke="rgb(0,0,0)"  stroke-width="2.0"/>
<line x1="61.5" y1="178.9" x2="40.0" y2="147.5" stroke="rgb(0,0,0)"  stroke-width="2.0"/>
<line x1="40.0" y1="147.5" x2="47.4" y2="123.5" stroke="rgb(0,0,0)"  stroke-width="2.0"/>
<text x="179.665060" y="48.000000" fill="rgb(30,239,30)"  stroke="rgb(30,239,30)" stroke-width="1" font-size="16" >Cl</text>
<text x="33.227816" y="119.058372" fill="rgb(12,12,255)"  stroke="rgb(12,12,255)" stroke-width="1" font-size="16" >HN</text>
<text x="93.448796" y="189.786112" fill="rgb(12,12,255)"  stroke="rgb(12,12,255)" stroke-width="1" font-size="16" >N</text>
</svg>
</g>
<text text-anchor="middle" font-size="2.000000" fill ="black" font-family="sans-serif"
x="83.333333" y="32.666667" >C15H11ClN2O 270.714</text>
<g transform="translate(66.666667,0.000000)">
<svg width="33.333333" height="33.333333" x="0" y="0" viewBox="0 0 349.250538 265.105469"
font-family="sans-serif" stroke="rgb(0,0,0)" stroke-width="2.000000"  stroke-linecap="round">
<line x1="212.5" y1="46.5" x2="190.7" y2="59.1" stroke="rgb(0,0,0)"  stroke-width="2.0"/>
<line x1="52.4" y1="148.5" x2="77.3" y2="144.7" stroke="rgb(0,0,0)"  stroke-width="2.0"/>
<line x1="53.3" y1="154.4" x2="78.2" y2="150.7" stroke="rgb(0,0,0)"  stroke-width="2.0"/>
<line x1="163.3" y1="154.1" x2="236.3" y2="176.6" stroke="rgb(0,0,0)"  stroke-width="2.0"/>
<line x1="157.6" y1="116.4" x2="124.6" y2="97.3" stroke="rgb(0,0,0)"  stroke-width="2.0"/>
<line x1="156.0" y1="107.1" x2="133.3" y2="94.0" stroke="rgb(0,0,0)"  stroke-width="2.0"/>
<line x1="124.6" y1="97.3" x2="124.6" y2="59.1" stroke="rgb(0,0,0)"  stroke-width="2.0"/>
<line x1="124.6" y1="59.1" x2="157.6" y2="40.0" stroke="rgb(0,0,0)"  stroke-width="2.0"/>
<line x1="133.3" y1="62.3" x2="156.0" y2="49.2" stroke="rgb(0,0,0)"  stroke-width="2.0"/>
<line x1="157.6" y1="40.0" x2="190.7" y2="59.1" stroke="rgb(0,0,0)"  stroke-width="2.0"/>
<line x1="190.7" y1="59.1" x2="190.7" y2="97.3" stroke="rgb(0,0,0)"  stroke-width="2.0"/>
<line x1="183.5" y1="65.1" x2="183.5" y2="91.3" stroke="rgb(0,0,0)"  stroke-width="2.0"/>
<line x1="190.7" y1="97.3" x2="157.6" y2="116.4" stroke="rgb(0,0,0)"  stroke-width="2.0"/>
<line x1="236.3" y1="176.6" x2="244.8" y2="213.9" stroke="rgb(0,0,0)"  stroke-width="2.0"/>
<line x1="244.8" y1="213.9" x2="281.3" y2="225.1" stroke="rgb(0,0,0)"  stroke-width="2.0"/>
<line x1="252.6" y1="208.7" x2="277.6" y2="216.5" stroke="rgb(0,0,0)"  stroke-width="2.0"/>
<line x1="281.3" y1="225.1" x2="309.3" y2="199.1" stroke="rgb(0,0,0)"  stroke-width="2.0"/>
<line x1="309.3" y1="199.1" x2="300.8" y2="161.9" stroke="rgb(0,0,0)"  stroke-width="2.0"/>
<line x1="300.9" y1="194.9" x2="295.1" y2="169.4" stroke="rgb(0,0,0)"  stroke-width="2.0"/>
<line x1="300.8" y1="161.9" x2="264.3" y2="150.7" stroke="rgb(0,0,0)"  stroke-width="2.0"/>
<line x1="264.3" y1="150.7" x2="236.3" y2="176.6" stroke="rgb(0,0,0)"  stroke-width="2.0"/>
<line x1="264.8" y1="160.0" x2="245.6" y2="177.8" stroke="rgb(0,0,0)"  stroke-width="2.0"/>
<line x1="101.1" y1="106.5" x2="124.6" y2="97.3" stroke="rgb(0,0,0)"  stroke-width="2.0"/>
<line x1="157.6" y1="116.4" x2="163.3" y2="154.1" stroke="rgb(0,0,0)"  stroke-width="2.0"/>
<line x1="163.3" y1="154.1" x2="145.9" y2="172.9" stroke="rgb(0,0,0)"  stroke-width="2.0"/>
<line x1="153.9" y1="153.6" x2="142.1" y2="166.4" stroke="rgb(0,0,0)"  stroke-width="2.0"/>
<line x1="124.4" y1="181.1" x2="99.3" y2="179.3" stroke="rgb(0,0,0)"  stroke-width="2.0"/>
<line x1="99.3" y1="179.3" x2="77.8" y2="147.7" stroke="rgb(0,0,0)"  stroke-width="2.0"/>
<line x1="77.8" y1="147.7" x2="85.2" y2="123.6" stroke="rgb(0,0,0)"  stroke-width="2.0"/>
<text x="217.750939" y="48.000000" fill="rgb(30,239,30)"  stroke="rgb(30,239,30)" stroke-width="1" font-size="16" >Cl</text>
<text x="34.000000" y="161.397452" fill="rgb(255,12,12)"  stroke="rgb(255,12,12)" stroke-width="1" font-size="16" >O</text>
<text x="71.009372" y="119.222302" fill="rgb(12,12,255)"  stroke="rgb(12,12,255)" stroke-width="1" font-size="16" >HN</text>
<text x="131.338058" y="190.109391" fill="rgb(12,12,255)"  stroke="rgb(12,12,255)" stroke-width="1" font-size="16" >N</text>
</svg>
</g>
<text text-anchor="middle" font-size="2.000000" fill ="black" font-family="sans-serif"
x="16.666667" y="66.000000" >C16H15ClN2 270.757</text>
<g transform="translate(0.000000,33.333333)">
<svg width="33.333333" height="33.333333" x="0" y="0" viewBox="0 0 328.231680 265.108153"
font-family="sans-serif" stroke="rgb(0,0,0)" stroke-width="2.000000"  stroke-linecap="round">
<line x1="136.8" y1="46.5" x2="158.6" y2="59.1" stroke="rgb(0,0,0)"  stroke-width="2.0"/>
<line x1="269.8" y1="102.4" x2="288.2" y2="85.3" stroke="rgb(0,0,0)"  stroke-width="2.0"/>
<line x1="185.9" y1="154.1" x2="113.0" y2="176.6" stroke="rgb(0,0,0)"  stroke-width="2.0"/>
<line x1="191.6" y1="116.4" x2="224.7" y2="97.3" stroke="rgb(0,0,0)"  stroke-width="2.0"/>
<line x1="193.2" y1="107.1" x2="215.9" y2="94.0" stroke="rgb(0,0,0)"  stroke-width="2.0"/>
<line x1="224.7" y1="97.3" x2="224.7" y2="59.1" stroke="rgb(0,0,0)"  stroke-width="2.0"/>
<line x1="224.7" y1="59.1" x2="191.6" y2="40.0" stroke="rgb(0,0,0)"  stroke-width="2.0"/>
<line x1="215.9" y1="62.3" x2="193.2" y2="49.2" stroke="rgb(0,0,0)"  stroke-width="2.0"/>
<line x1="191.6" y1="40.0" x2="158.6" y2="59.1" stroke="rgb(0,0,0)"  stroke-width="2.0"/>
<line x1="158.6" y1="59.1" x2="158.6" y2="97.3" stroke="rgb(0,0,0)"  stroke-width="2.0"/>
<line x1="165.8" y1="65.1" x2="165.8" y2="91.3" stroke="rgb(0,0,0)"  stroke-width="2.0"/>
<line x1="158.6" y1="97.3" x2="191.6" y2="116.4" stroke="rgb(0,0,0)"  stroke-width="2.0"/>
<line x1="113.0" y1="176.6" x2="85.0" y2="150.7" stroke="rgb(0,0,0)"  stroke-width="2.0"/>
<line x1="85.0" y1="150.7" x2="48.5" y2="161.9" stroke="rgb(0,0,0)"  stroke-width="2.0"/>
<line x1="81.4" y1="159.3" x2="56.4" y2="167.0" stroke="rgb(0,0,0)"  stroke-width="2.0"/>
<line x1="48.5" y1="161.9" x2="40.0" y2="199.1" stroke="rgb(0,0,0)"  stroke-width="2.0"/>
<line x1="40.0" y1="199.1" x2="68.0" y2="225.1" stroke="rgb(0,0,0)"  stroke-width="2.0"/>
<line x1="49.3" y1="197.9" x2="68.5" y2="215.7" stroke="rgb(0,0,0)"  stroke-width="2.0"/>
<line x1="68.0" y1="225.1" x2="104.5" y2="213.9" stroke="rgb(0,0,0)"  stroke-width="2.0"/>
<line x1="104.5" y1="213.9" x2="113.0" y2="176.6" stroke="rgb(0,0,0)"  stroke-width="2.0"/>
<line x1="98.8" y1="206.4" x2="104.6" y2="180.9" stroke="rgb(0,0,0)"  stroke-width="2.0"/>
<line x1="264.1" y1="123.6" x2="271.5" y2="147.7" stroke="rgb(0,0,0)"  stroke-width="2.0"/>
<line x1="271.5" y1="147.7" x2="250.0" y2="179.3" stroke="rgb(0,0,0)"  stroke-width="2.0"/>
<line x1="250.0" y1="179.3" x2="224.9" y2="181.1" stroke="rgb(0,0,0)"  stroke-width="2.0"/>
<line x1="203.3" y1="172.9" x2="185.9" y2="154.1" stroke="rgb(0,0,0)"  stroke-width="2.0"/>
<line x1="207.1" y1="166.4" x2="195.3" y2="153.6" stroke="rgb(0,0,0)"  stroke-width="2.0"/>
<line x1="185.9" y1="154.1" x2="191.6" y2="116.4" stroke="rgb(0,0,0)"  stroke-width="2.0"/>
<line x1="224.7" y1="97.3" x2="248.1" y2="106.5" stroke="rgb(0,0,0)"  stroke-width="2.0"/>
<text x="107.499510" y="48.000000" fill="rgb(30,239,30)"  stroke="rgb(30,239,30)" stroke-width="1" font-size="16" >Cl</text>
<text x="254.243146" y="119.224262" fill="rgb(12,12,255)"  stroke="rgb(12,12,255)" stroke-width="1" font-size="16" >N</text>
<text x="205.910882" y="190.109226" fill="rgb(12,12,255)"  stroke="rgb(12,12,255)" stroke-width="1" font-size="16" >N</text>
</svg>
</g>
<text text-anchor="middle" font-size="2.000000" fill ="black" font-family="sans-serif"
x="50.000000" y="66.000000" >C17H13N3O 275.305</text>
<g transform="translate(33.333333,33.333333)">
<svg width="33.333333" height="33.333333" x="0" y="0" viewBox="0 0 350.318574 285.005777"
font-family="sans-serif" stroke="rgb(0,0,0)" stroke-width="2.000000"  stroke-linecap="round">
<line x1="52.4" y1="168.1" x2="77.5" y2="164.3" stroke="rgb(0,0,0)"  stroke-width="2.0"/>
<line x1="53.3" y1="174.0" x2="78.4" y2="170.3" stroke="rgb(0,0,0)"  stroke-width="2.0"/>
<line x1="79.7" y1="121.8" x2="61.1" y2="104.6" stroke="rgb(0,0,0)"  stroke-width="2.0"/>
<line x1="246.4" y1="46.5" x2="224.5" y2="59.2" stroke="rgb(0,0,0)"  stroke-width="2.0"/>
<line x1="248.5" y1="50.1" x2="226.6" y2="62.8" stroke="rgb(0,0,0)"  stroke-width="2.0"/>
<line x1="244.3" y1="42.9" x2="222.4" y2="55.5" stroke="rgb(0,0,0)"  stroke-width="2.0"/>
<line x1="163.8" y1="173.7" x2="237.1" y2="196.3" stroke="rgb(0,0,0)"  stroke-width="2.0"/>
<line x1="191.3" y1="78.3" x2="224.5" y2="59.2" stroke="rgb(0,0,0)"  stroke-width="2.0"/>
<line x1="191.3" y1="116.7" x2="158.1" y2="135.8" stroke="rgb(0,0,0)"  stroke-width="2.0"/>
<line x1="158.1" y1="135.8" x2="124.9" y2="116.7" stroke="rgb(0,0,0)"  stroke-width="2.0"/>
<line x1="156.5" y1="126.6" x2="133.7" y2="113.4" stroke="rgb(0,0,0)"  stroke-width="2.0"/>
<line x1="124.9" y1="116.7" x2="124.9" y2="78.3" stroke="rgb(0,0,0)"  stroke-width="2.0"/>
<line x1="124.9" y1="78.3" x2="158.1" y2="59.2" stroke="rgb(0,0,0)"  stroke-width="2.0"/>
<line x1="133.7" y1="81.6" x2="156.5" y2="68.4" stroke="rgb(0,0,0)"  stroke-width="2.0"/>
<line x1="158.1" y1="59.2" x2="191.3" y2="78.3" stroke="rgb(0,0,0)"  stroke-width="2.0"/>
<line x1="191.3" y1="78.3" x2="191.3" y2="116.7" stroke="rgb(0,0,0)"  stroke-width="2.0"/>
<line x1="184.1" y1="84.3" x2="184.1" y2="110.7" stroke="rgb(0,0,0)"  stroke-width="2.0"/>
<line x1="237.1" y1="196.3" x2="245.6" y2="233.7" stroke="rgb(0,0,0)"  stroke-width="2.0"/>
<line x1="245.6" y1="233.7" x2="282.2" y2="245.0" stroke="rgb(0,0,0)"  stroke-width="2.0"/>
<line x1="253.4" y1="228.6" x2="278.6" y2="236.4" stroke="rgb(0,0,0)"  stroke-width="2.0"/>
<line x1="282.2" y1="245.0" x2="310.3" y2="218.9" stroke="rgb(0,0,0)"  stroke-width="2.0"/>
<line x1="310.3" y1="218.9" x2="301.8" y2="181.6" stroke="rgb(0,0,0)"  stroke-width="2.0"/>
<line x1="302.0" y1="214.7" x2="296.1" y2="189.0" stroke="rgb(0,0,0)"  stroke-width="2.0"/>
<line x1="301.8" y1="181.6" x2="265.2" y2="170.3" stroke="rgb(0,0,0)"  stroke-width="2.0"/>
<line x1="265.2" y1="170.3" x2="237.1" y2="196.3" stroke="rgb(0,0,0)"  stroke-width="2.0"/>
<line x1="265.7" y1="179.6" x2="246.4" y2="197.5" stroke="rgb(0,0,0)"  stroke-width="2.0"/>
<line x1="101.3" y1="125.9" x2="124.9" y2="116.7" stroke="rgb(0,0,0)"  stroke-width="2.0"/>
<line x1="158.1" y1="135.8" x2="163.8" y2="173.7" stroke="rgb(0,0,0)"  stroke-width="2.0"/>
<line x1="163.8" y1="173.7" x2="146.3" y2="192.6" stroke="rgb(0,0,0)"  stroke-width="2.0"/>
<line x1="154.4" y1="173.2" x2="142.5" y2="186.1" stroke="rgb(0,0,0)"  stroke-width="2.0"/>
<line x1="124.8" y1="200.9" x2="99.5" y2="199.0" stroke="rgb(0,0,0)"  stroke-width="2.0"/>
<line x1="99.5" y1="199.0" x2="77.9" y2="167.3" stroke="rgb(0,0,0)"  stroke-width="2.0"/>
<line x1="77.9" y1="167.3" x2="85.4" y2="143.1" stroke="rgb(0,0,0)"  stroke-width="2.0"/>
<text x="34.000000" y="181.011935" fill="rgb(255,12,12)"  stroke="rgb(255,12,12)" stroke-width="1" font-size="16" >O</text>
<text x="83.203228" y="138.670321" fill="rgb(12,12,255)"  stroke="rgb(12,12,255)" stroke-width="1" font-size="16" >N</text>
<text x="131.723126" y="209.839212" fill="rgb(12,12,255)"  stroke="rgb(12,12,255)" stroke-width="1" font-size="16" >N</text>
<text x="251.677458" y="48.000000" fill="rgb(12,12,255)"  stroke="rgb(12,12,255)" stroke-width="1" font-size="16" >N</text>
</svg>
</g>
<text text-anchor="middle" font-size="2.000000" fill ="black" font-family="sans-serif"
x="83.333333" y="66.000000" >C15H11N3O3 281.266</text>
<g transform="translate(66.666667,33.333333)">
<svg width="33.333333" height="33.333333" x="0" y="0" viewBox="0 0 350.318733 304.175836"
font-family="sans-serif" stroke="rgb(0,0,0)" stroke-width="2.000000"  stroke-linecap="round">
<line x1="52.4" y1="187.3" x2="77.5" y2="183.5" stroke="rgb(0,0,0)"  stroke-width="2.0"/>
<line x1="53.3" y1="193.2" x2="78.4" y2="189.4" stroke="rgb(0,0,0)"  stroke-width="2.0"/>
<line x1="246.4" y1="91.0" x2="235.7" y2="84.8" stroke="rgb(0,0,0)"  stroke-width="2.0"/>
<line x1="227.5" y1="53.0" x2="227.5" y2="65.3" stroke="rgb(0,0,0)"  stroke-width="2.0"/>
<line x1="221.5" y1="53.0" x2="221.5" y2="65.3" stroke="rgb(0,0,0)"  stroke-width="2.0"/>
<line x1="213.2" y1="84.8" x2="191.3" y2="97.5" stroke="rgb(0,0,0)"  stroke-width="2.0"/>
<line x1="163.8" y1="192.9" x2="237.1" y2="215.5" stroke="rgb(0,0,0)"  stroke-width="2.0"/>
<line x1="191.3" y1="135.8" x2="158.1" y2="155.0" stroke="rgb(0,0,0)"  stroke-width="2.0"/>
<line x1="158.1" y1="155.0" x2="124.9" y2="135.8" stroke="rgb(0,0,0)"  stroke-width="2.0"/>
<line x1="156.5" y1="145.8" x2="133.7" y2="132.6" stroke="rgb(0,0,0)"  stroke-width="2.0"/>
<line x1="124.9" y1="135.8" x2="124.9" y2="97.5" stroke="rgb(0,0,0)"  stroke-width="2.0"/>
<line x1="124.9" y1="97.5" x2="158.1" y2="78.3" stroke="rgb(0,0,0)"  stroke-width="2.0"/>
<line x1="133.7" y1="100.7" x2="156.5" y2="87.6" stroke="rgb(0,0,0)"  stroke-width="2.0"/>
<line x1="158.1" y1="78.3" x2="191.3" y2="97.5" stroke="rgb(0,0,0)"  stroke-width="2.0"/>
<line x1="191.3" y1="97.5" x2="191.3" y2="135.8" stroke="rgb(0,0,0)"  stroke-width="2.0"/>
<line x1="184.1" y1="103.5" x2="184.1" y2="129.8" stroke="rgb(0,0,0)"  stroke-width="2.0"/>
<line x1="237.1" y1="215.5" x2="245.6" y2="252.9" stroke="rgb(0,0,0)"  stroke-width="2.0"/>
<line x1="245.6" y1="252.9" x2="282.2" y2="264.2" stroke="rgb(0,0,0)"  stroke-width="2.0"/>
<line x1="253.4" y1="247.8" x2="278.6" y2="255.5" stroke="rgb(0,0,0)"  stroke-width="2.0"/>
<line x1="282.2" y1="264.2" x2="310.3" y2="238.1" stroke="rgb(0,0,0)"  stroke-width="2.0"/>
<line x1="310.3" y1="238.1" x2="301.8" y2="200.7" stroke="rgb(0,0,0)"  stroke-width="2.0"/>
<line x1="302.0" y1="233.9" x2="296.1" y2="208.2" stroke="rgb(0,0,0)"  stroke-width="2.0"/>
<line x1="301.8" y1="200.7" x2="265.2" y2="189.4" stroke="rgb(0,0,0)"  stroke-width="2.0"/>
<line x1="265.2" y1="189.4" x2="237.1" y2="215.5" stroke="rgb(0,0,0)"  stroke-width="2.0"/>
<line x1="265.7" y1="198.8" x2="246.4" y2="216.7" stroke="rgb(0,0,0)"  stroke-width="2.0"/>
<line x1="101.3" y1="145.1" x2="124.9" y2="135.8" stroke="rgb(0,0,0)"  stroke-width="2.0"/>
<line x1="158.1" y1="155.0" x2="163.8" y2="192.9" stroke="rgb(0,0,0)"  stroke-width="2.0"/>
<line x1="163.8" y1="192.9" x2="146.3" y2="211.7" stroke="rgb(0,0,0)"  stroke-width="2.0"/>
<line x1="154.4" y1="192.4" x2="142.5" y2="205.2" stroke="rgb(0,0,0)"  stroke-width="2.0"/>
<line x1="124.8" y1="220.0" x2="99.5" y2="218.1" stroke="rgb(0,0,0)"  stroke-width="2.0"/>
<line x1="99.5" y1="218.1" x2="77.9" y2="186.5" stroke="rgb(0,0,0)"  stroke-width="2.0"/>
<line x1="77.9" y1="186.5" x2="85.4" y2="162.3" stroke="rgb(0,0,0)"  stroke-width="2.0"/>
<text x="34.000000" y="200.181085" fill="rgb(255,12,12)"  stroke="rgb(255,12,12)" stroke-width="1" font-size="16" >O</text>
<text x="262.478944" y="93.469149" fill="rgb(255,12,12)"  stroke="rgb(255,12,12)" stroke-width="1" font-size="32" >-</text>
<text x="251.678944" y="105.501149" fill="rgb(255,12,12)"  stroke="rgb(255,12,12)" stroke-width="1" font-size="16" >O</text>
<text x="218.481113" y="48.000000" fill="rgb(255,12,12)"  stroke="rgb(255,12,12)" stroke-width="1" font-size="16" >O</text>
<text x="71.205171" y="157.838191" fill="rgb(12,12,255)"  stroke="rgb(12,12,255)" stroke-width="1" font-size="16" >HN</text>
<text x="131.724810" y="229.004736" fill="rgb(12,12,255)"  stroke="rgb(12,12,255)" stroke-width="1" font-size="16" >N</text>
<text x="229.281113" y="74.302099" fill="rgb(12,12,255)"  stroke="rgb(12,12,255)" stroke-width="1" font-size="16" >+</text>
<text x="218.481113" y="86.334099" fill="rgb(12,12,255)"  stroke="rgb(12,12,255)" stroke-width="1" font-size="16" >N</text>
</svg>
</g>
<text text-anchor="middle" font-size="2.000000" fill ="black" font-family="sans-serif"
x="16.666667" y="99.333333" >C16H13ClN2O 284.74</text>
<g transform="translate(0.000000,66.666667)">
<svg width="33.333333" height="33.333333" x="0" y="0" viewBox="0 0 349.811263 265.489799"
font-family="sans-serif" stroke="rgb(0,0,0)" stroke-width="2.000000"  stroke-linecap="round">
<line x1="212.9" y1="46.5" x2="191.0" y2="59.1" stroke="rgb(0,0,0)"  stroke-width="2.0"/>
<line x1="52.4" y1="148.7" x2="77.4" y2="145.0" stroke="rgb(0,0,0)"  stroke-width="2.0"/>
<line x1="53.3" y1="154.7" x2="78.3" y2="150.9" stroke="rgb(0,0,0)"  stroke-width="2.0"/>
<line x1="79.6" y1="102.5" x2="61.1" y2="85.3" stroke="rgb(0,0,0)"  stroke-width="2.0"/>
<line x1="163.6" y1="154.4" x2="236.7" y2="176.9" stroke="rgb(0,0,0)"  stroke-width="2.0"/>
<line x1="157.9" y1="116.5" x2="124.7" y2="97.4" stroke="rgb(0,0,0)"  stroke-width="2.0"/>
<line x1="156.3" y1="107.3" x2="133.5" y2="94.2" stroke="rgb(0,0,0)"  stroke-width="2.0"/>
<line x1="124.7" y1="97.4" x2="124.7" y2="59.1" stroke="rgb(0,0,0)"  stroke-width="2.0"/>
<line x1="124.7" y1="59.1" x2="157.9" y2="40.0" stroke="rgb(0,0,0)"  stroke-width="2.0"/>
<line x1="133.5" y1="62.4" x2="156.3" y2="49.2" stroke="rgb(0,0,0)"  stroke-width="2.0"/>
<line x1="157.9" y1="40.0" x2="191.0" y2="59.1" stroke="rgb(0,0,0)"  stroke-width="2.0"/>
<line x1="191.0" y1="59.1" x2="191.0" y2="97.4" stroke="rgb(0,0,0)"  stroke-width="2.0"/>
<line x1="183.8" y1="65.1" x2="183.8" y2="91.4" stroke="rgb(0,0,0)"  stroke-width="2.0"/>
<line x1="191.0" y1="97.4" x2="157.9" y2="116.5" stroke="rgb(0,0,0)"  stroke-width="2.0"/>
<line x1="236.7" y1="176.9" x2="245.2" y2="214.2" stroke="rgb(0,0,0)"  stroke-width="2.0"/>
<line x1="245.2" y1="214.2" x2="281.8" y2="225.5" stroke="rgb(0,0,0)"  stroke-width="2.0"/>
<line x1="253.1" y1="209.1" x2="278.2" y2="216.8" stroke="rgb(0,0,0)"  stroke-width="2.0"/>
<line x1="281.8" y1="225.5" x2="309.8" y2="199.5" stroke="rgb(0,0,0)"  stroke-width="2.0"/>
<line x1="309.8" y1="199.5" x2="301.3" y2="162.2" stroke="rgb(0,0,0)"  stroke-width="2.0"/>
<line x1="301.5" y1="195.2" x2="295.6" y2="169.6" stroke="rgb(0,0,0)"  stroke-width="2.0"/>
<line x1="301.3" y1="162.2" x2="264.7" y2="150.9" stroke="rgb(0,0,0)"  stroke-width="2.0"/>
<line x1="264.7" y1="150.9" x2="236.7" y2="176.9" stroke="rgb(0,0,0)"  stroke-width="2.0"/>
<line x1="265.2" y1="160.2" x2="246.0" y2="178.1" stroke="rgb(0,0,0)"  stroke-width="2.0"/>
<line x1="101.2" y1="106.6" x2="124.7" y2="97.4" stroke="rgb(0,0,0)"  stroke-width="2.0"/>
<line x1="157.9" y1="116.5" x2="163.6" y2="154.4" stroke="rgb(0,0,0)"  stroke-width="2.0"/>
<line x1="163.6" y1="154.4" x2="146.1" y2="173.1" stroke="rgb(0,0,0)"  stroke-width="2.0"/>
<line x1="154.2" y1="153.9" x2="142.3" y2="166.7" stroke="rgb(0,0,0)"  stroke-width="2.0"/>
<line x1="124.6" y1="181.4" x2="99.4" y2="179.5" stroke="rgb(0,0,0)"  stroke-width="2.0"/>
<line x1="99.4" y1="179.5" x2="77.8" y2="147.9" stroke="rgb(0,0,0)"  stroke-width="2.0"/>
<line x1="77.8" y1="147.9" x2="85.3" y2="123.8" stroke="rgb(0,0,0)"  stroke-width="2.0"/>
<text x="218.134384" y="48.000000" fill="rgb(30,239,30)"  stroke="rgb(30,239,30)" stroke-width="1" font-size="16" >Cl</text>
<text x="34.000000" y="161.631884" fill="rgb(255,12,12)"  stroke="rgb(255,12,12)" stroke-width="1" font-size="16" >O</text>
<text x="83.112026" y="119.370105" fill="rgb(12,12,255)"  stroke="rgb(12,12,255)" stroke-width="1" font-size="16" >N</text>
<text x="131.541118" y="190.402228" fill="rgb(12,12,255)"  stroke="rgb(12,12,255)" stroke-width="1" font-size="16" >N</text>
</svg>
</g>
<text text-anchor="middle" font-size="2.000000" fill ="black" font-family="sans-serif"
x="50.000000" y="99.333333" >C15H11ClN2O2 286.713</text>
<g transform="translate(33.333333,66.666667)">
<svg width="33.333333" height="33.333333" x="0" y="0" viewBox="0 0 349.809689 265.489060"
font-family="sans-serif" stroke="rgb(0,0,0)" stroke-width="2.000000"  stroke-linecap="round">
<line x1="212.9" y1="46.5" x2="191.0" y2="59.1" stroke="rgb(0,0,0)"  stroke-width="2.0"/>
<line x1="52.4" y1="148.7" x2="77.4" y2="145.0" stroke="rgb(0,0,0)"  stroke-width="2.0"/>
<line x1="53.3" y1="154.7" x2="78.3" y2="150.9" stroke="rgb(0,0,0)"  stroke-width="2.0"/>
<line x1="163.6" y1="154.4" x2="236.7" y2="176.9" stroke="rgb(0,0,0)"  stroke-width="2.0"/>
<line x1="95.3" y1="182.8" x2="94.5" y2="181.4" stroke="rgb(0,0,0)"  stroke-width="2.0"/>
<line x1="92.1" y1="185.4" x2="90.7" y2="182.9" stroke="rgb(0,0,0)"  stroke-width="2.0"/>
<line x1="88.9" y1="188.0" x2="86.8" y2="184.4" stroke="rgb(0,0,0)"  stroke-width="2.0"/>
<line x1="85.7" y1="190.6" x2="82.9" y2="185.9" stroke="rgb(0,0,0)"  stroke-width="2.0"/>
<line x1="82.4" y1="193.2" x2="79.1" y2="187.4" stroke="rgb(0,0,0)"  stroke-width="2.0"/>
<line x1="79.2" y1="195.8" x2="75.2" y2="188.9" stroke="rgb(0,0,0)"  stroke-width="2.0"/>
<line x1="157.9" y1="116.5" x2="124.7" y2="97.4" stroke="rgb(0,0,0)"  stroke-width="2.0"/>
<line x1="156.3" y1="107.3" x2="133.5" y2="94.2" stroke="rgb(0,0,0)"  stroke-width="2.0"/>
<line x1="124.7" y1="97.4" x2="124.7" y2="59.1" stroke="rgb(0,0,0)"  stroke-width="2.0"/>
<line x1="124.7" y1="59.1" x2="157.9" y2="40.0" stroke="rgb(0,0,0)"  stroke-width="2.0"/>
<line x1="133.5" y1="62.4" x2="156.3" y2="49.2" stroke="rgb(0,0,0)"  stroke-width="2.0"/>
<line x1="157.9" y1="40.0" x2="191.0" y2="59.1" stroke="rgb(0,0,0)"  stroke-width="2.0"/>
<line x1="191.0" y1="59.1" x2="191.0" y2="97.4" stroke="rgb(0,0,0)"  stroke-width="2.0"/>
<line x1="183.8" y1="65.1" x2="183.8" y2="91.4" stroke="rgb(0,0,0)"  stroke-width="2.0"/>
<line x1="191.0" y1="97.4" x2="157.9" y2="116.5" stroke="rgb(0,0,0)"  stroke-width="2.0"/>
<line x1="236.7" y1="176.9" x2="245.2" y2="214.2" stroke="rgb(0,0,0)"  stroke-width="2.0"/>
<line x1="245.2" y1="214.2" x2="281.8" y2="225.5" stroke="rgb(0,0,0)"  stroke-width="2.0"/>
<line x1="253.1" y1="209.1" x2="278.2" y2="216.8" stroke="rgb(0,0,0)"  stroke-width="2.0"/>
<line x1="281.8" y1="225.5" x2="309.8" y2="199.5" stroke="rgb(0,0,0)"  stroke-width="2.0"/>
<line x1="309.8" y1="199.5" x2="301.3" y2="162.2" stroke="rgb(0,0,0)"  stroke-width="2.0"/>
<line x1="301.5" y1="195.2" x2="295.6" y2="169.6" stroke="rgb(0,0,0)"  stroke-width="2.0"/>
<line x1="301.3" y1="162.2" x2="264.7" y2="150.9" stroke="rgb(0,0,0)"  stroke-width="2.0"/>
<line x1="264.7" y1="150.9" x2="236.7" y2="176.9" stroke="rgb(0,0,0)"  stroke-width="2.0"/>
<line x1="265.2" y1="160.2" x2="246.0" y2="178.1" stroke="rgb(0,0,0)"  stroke-width="2.0"/>
<line x1="101.2" y1="106.6" x2="124.7" y2="97.4" stroke="rgb(0,0,0)"  stroke-width="2.0"/>
<line x1="157.9" y1="116.5" x2="163.6" y2="154.4" stroke="rgb(0,0,0)"  stroke-width="2.0"/>
<line x1="163.6" y1="154.4" x2="146.1" y2="173.1" stroke="rgb(0,0,0)"  stroke-width="2.0"/>
<line x1="154.2" y1="153.9" x2="142.3" y2="166.7" stroke="rgb(0,0,0)"  stroke-width="2.0"/>
<line x1="124.6" y1="181.4" x2="99.4" y2="179.5" stroke="rgb(0,0,0)"  stroke-width="2.0"/>
<line x1="99.4" y1="179.5" x2="77.8" y2="147.9" stroke="rgb(0,0,0)"  stroke-width="2.0"/>
<line x1="77.8" y1="147.9" x2="85.3" y2="123.8" stroke="rgb(0,0,0)"  stroke-width="2.0"/>
<text x="218.132121" y="48.000000" fill="rgb(30,239,30)"  stroke="rgb(30,239,30)" stroke-width="1" font-size="16" >Cl</text>
<text x="48.254548" y="206.673372" fill="rgb(255,12,12)"  stroke="rgb(255,12,12)" stroke-width="1" font-size="16" >HO</text>
<text x="34.000000" y="161.632539" fill="rgb(255,12,12)"  stroke="rgb(255,12,12)" stroke-width="1" font-size="16" >O</text>
<text x="71.111648" y="119.370199" fill="rgb(12,12,255)"  stroke="rgb(12,12,255)" stroke-width="1" font-size="16" >HN</text>
<text x="131.543127" y="190.403714" fill="rgb(12,12,255)"  stroke="rgb(12,12,255)" stroke-width="1" font-size="16" >N</text>
</svg>
</g>
<text text-anchor="middle" font-size="2.000000" fill ="black" font-family="sans-serif"
x="83.333333" y="99.333333" >C15H10ClFN2O 288.704</text>
<g transform="translate(66.666667,66.666667)">
<svg width="33.333333" height="33.333333" x="0" y="0" viewBox="0 0 349.809728 265.490178"
font-family="sans-serif" stroke="rgb(0,0,0)" stroke-width="2.000000"  stroke-linecap="round">
<line x1="212.9" y1="46.5" x2="191.0" y2="59.1" stroke="rgb(0,0,0)"  stroke-width="2.0"/>
<line x1="259.1" y1="126.3" x2="264.7" y2="150.9" stroke="rgb(0,0,0)"  stroke-width="2.0"/>
<line x1="52.4" y1="148.7" x2="77.4" y2="145.0" stroke="rgb(0,0,0)"  stroke-width="2.0"/>
<line x1="53.3" y1="154.7" x2="78.3" y2="150.9" stroke="rgb(0,0,0)"  stroke-width="2.0"/>
<line x1="163.6" y1="154.4" x2="236.7" y2="176.9" stroke="rgb(0,0,0)"  stroke-width="2.0"/>
<line x1="157.9" y1="116.5" x2="124.7" y2="97.4" stroke="rgb(0,0,0)"  stroke-width="2.0"/>
<line x1="156.3" y1="107.3" x2="133.5" y2="94.2" stroke="rgb(0,0,0)"  stroke-width="2.0"/>
<line x1="124.7" y1="97.4" x2="124.7" y2="59.1" stroke="rgb(0,0,0)"  stroke-width="2.0"/>
<line x1="124.7" y1="59.1" x2="157.9" y2="40.0" stroke="rgb(0,0,0)"  stroke-width="2.0"/>
<line x1="133.5" y1="62.4" x2="156.3" y2="49.2" stroke="rgb(0,0,0)"  stroke-width="2.0"/>
<line x1="157.9" y1="40.0" x2="191.0" y2="59.1" stroke="rgb(0,0,0)"  stroke-width="2.0"/>
<line x1="191.0" y1="59.1" x2="191.0" y2="97.4" stroke="rgb(0,0,0)"  stroke-width="2.0"/>
<line x1="183.8" y1="65.1" x2="183.8" y2="91.4" stroke="rgb(0,0,0)"  stroke-width="2.0"/>
<line x1="191.0" y1="97.4" x2="157.9" y2="116.5" stroke="rgb(0,0,0)"  stroke-width="2.0"/>
<line x1="236.7" y1="176.9" x2="245.2" y2="214.2" stroke="rgb(0,0,0)"  stroke-width="2.0"/>
<line x1="245.0" y1="181.2" x2="250.9" y2="206.8" stroke="rgb(0,0,0)"  stroke-width="2.0"/>
<line x1="245.2" y1="214.2" x2="281.8" y2="225.5" stroke="rgb(0,0,0)"  stroke-width="2.0"/>
<line x1="281.8" y1="225.5" x2="309.8" y2="199.5" stroke="rgb(0,0,0)"  stroke-width="2.0"/>
<line x1="281.3" y1="216.1" x2="300.5" y2="198.3" stroke="rgb(0,0,0)"  stroke-width="2.0"/>
<line x1="309.8" y1="199.5" x2="301.3" y2="162.2" stroke="rgb(0,0,0)"  stroke-width="2.0"/>
<line x1="301.3" y1="162.2" x2="264.7" y2="150.9" stroke="rgb(0,0,0)"  stroke-width="2.0"/>
<line x1="293.4" y1="167.3" x2="268.3" y2="159.5" stroke="rgb(0,0,0)"  stroke-width="2.0"/>
<line x1="264.7" y1="150.9" x2="236.7" y2="176.9" stroke="rgb(0,0,0)"  stroke-width="2.0"/>
<line x1="101.2" y1="106.6" x2="124.7" y2="97.4" stroke="rgb(0,0,0)"  stroke-width="2.0"/>
<line x1="157.9" y1="116.5" x2="163.6" y2="154.4" stroke="rgb(0,0,0)"  stroke-width="2.0"/>
<line x1="163.6" y1="154.4" x2="146.1" y2="173.1" stroke="rgb(0,0,0)"  stroke-width="2.0"/>
<line x1="154.2" y1="153.9" x2="142.3" y2="166.7" stroke="rgb(0,0,0)"  stroke-width="2.0"/>
<line x1="124.6" y1="181.4" x2="99.4" y2="179.5" stroke="rgb(0,0,0)"  stroke-width="2.0"/>
<line x1="99.4" y1="179.5" x2="77.8" y2="147.9" stroke="rgb(0,0,0)"  stroke-width="2.0"/>
<line x1="77.8" y1="147.9" x2="85.3" y2="123.8" stroke="rgb(0,0,0)"  stroke-width="2.0"/>
<text x="218.132636" y="48.000000" fill="rgb(30,239,30)"  stroke="rgb(30,239,30)" stroke-width="1" font-size="16" >Cl</text>
<text x="250.220600" y="121.587541" fill="rgb(127,178,255)"  stroke="rgb(127,178,255)" stroke-width="1" font-size="16" >F</text>
<text x="34.000000" y="161.635022" fill="rgb(255,12,12)"  stroke="rgb(255,12,12)" stroke-width="1" font-size="16" >O</text>
<text x="71.111267" y="119.372249" fill="rgb(12,12,255)"  stroke="rgb(12,12,255)" stroke-width="1" font-size="16" >HN</text>
<text x="131.540386" y="190.403425" fill="rgb(12,12,255)"  stroke="rgb(12,12,255)" stroke-width="1" font-size="16" >N</text>
</svg>
</g>
<script type="text/ecmascript">
  <![CDATA[
    addEventListener('DOMMouseScroll', wheel, false);
    onmousewheel = wheel;
    var svgEl = document.getElementById("topsvg");
    var startx=0;
    var starty=0;
    function wheel(evt){
      evt = evt ? evt : window.event;
      var normal = evt.detail ? evt.detail * -1 : evt.wheelDelta / 40;
      var vb = new Array(4);
      var vbtext = svgEl.getAttributeNS(null,"viewBox");
      vb = vbtext.split(" ");
      var zoom = (normal<0)? 1.41 : 0.71;
      //var dwidth = parseFloat(Math.max(vb[2],vb[3])) * (1-zoom);
      vb[0] = parseFloat(vb[0]) + parseFloat(vb[2])*(1-zoom) * evt.clientX/innerWidth;
      vb[1] = parseFloat(vb[1]) + parseFloat(vb[3])*(1-zoom) * evt.clientY/innerHeight;
      vb[2] = parseFloat(vb[2]) * zoom;
      vb[3] = parseFloat(vb[3]) * zoom;
      svgEl.setAttributeNS(null, "viewBox", vb.join(" "));
      if (evt.preventDefault)
        evt.preventDefault(); // Don't scroll the page when zooming
    }
    onmousedown = function(evt) {
      startx = evt.clientX;
      starty = evt.clientY;
    }
    onmousemove=function(evt) {
      if(startx!=0 && starty!=0 
        && ((evt.clientX - startx)*(evt.clientX - startx)+(evt.clientY - starty)*(evt.clientY - starty)>100))
      {
        var vbtext = svgEl.getAttributeNS(null,"viewBox");
        vb = vbtext.split(" ");
        var maxwh = Math.max(parseFloat(vb[2]),parseFloat(vb[3]));
        vb[0] = parseFloat(vb[0]) - (evt.clientX - startx)*maxwh/innerWidth;
        vb[1] = parseFloat(vb[1]) - (evt.clientY - starty)*maxwh/innerHeight;
        svgEl.setAttributeNS(null, "viewBox", vb.join(" "));
        startx = evt.clientX;
        starty = evt.clientY;
      }
    } 
    onmouseup=function() {
      startx=0;
      starty=0;
    }
    ondblclick=function() {
      location.reload();
    }
  ]]>
</script>
</svg>

